<svg width="20" height="20" viewBox="0 0 20 20" fill="none" xmlns="http://www.w3.org/2000/svg">
<g id="Linked In">
<path id="Vector" d="M18.3294 18.3337V18.333H18.3336V12.2205C18.3336 9.23023 17.6898 6.92676 14.194 6.92676C12.5134 6.92676 11.3856 7.84898 10.9252 8.72329H10.8766V7.20592H7.56201V18.333H11.0134V12.8233C11.0134 11.3726 11.2884 9.96982 13.0849 9.96982C14.8551 9.96982 14.8815 11.6254 14.8815 12.9163V18.3337H18.3294Z" fill="white"/>
<path id="Vector_2" d="M1.94189 7.20605H5.39745V18.3331H1.94189V7.20605Z" fill="white"/>
<path id="Vector_3" d="M3.66789 1.66699C2.56303 1.66699 1.6665 2.56352 1.6665 3.66838C1.6665 4.77324 2.56303 5.68852 3.66789 5.68852C4.77275 5.68852 5.66928 4.77324 5.66928 3.66838C5.66859 2.56352 4.77206 1.66699 3.66789 1.66699V1.66699Z" fill="white"/>
</g>
</svg>
