<svg width="20" height="20" viewBox="0 0 20 20" fill="none" xmlns="http://www.w3.org/2000/svg">
<g id="Instagram (filled)">
<path id="Subtract" fill-rule="evenodd" clip-rule="evenodd" d="M1.6665 10.0003C1.6665 7.35939 1.6665 6.03891 2.11057 5.00192C2.66695 3.70265 3.70216 2.66744 5.00143 2.11106C6.03843 1.66699 7.3589 1.66699 9.99984 1.66699C12.6408 1.66699 13.9613 1.66699 14.9982 2.11106C16.2975 2.66744 17.3327 3.70265 17.8891 5.00192C18.3332 6.03891 18.3332 7.35939 18.3332 10.0003C18.3332 12.6413 18.3332 13.9617 17.8891 14.9987C17.3327 16.298 16.2975 17.3332 14.9982 17.8896C13.9613 18.3337 12.6408 18.3337 9.99984 18.3337C7.3589 18.3337 6.03843 18.3337 5.00143 17.8896C3.70216 17.3332 2.66695 16.298 2.11057 14.9987C1.6665 13.9617 1.6665 12.6413 1.6665 10.0003ZM9.99986 5.58876C7.56346 5.58876 5.5881 7.56413 5.5881 10.0005C5.5881 12.4369 7.56346 14.4123 9.99986 14.4123C12.4363 14.4123 14.4116 12.4369 14.4116 10.0005C14.4116 7.56413 12.4363 5.58876 9.99986 5.58876ZM9.99986 12.7579C8.48001 12.7579 7.24251 11.5204 7.24251 10.0005C7.24251 8.47957 8.48001 7.24317 9.99986 7.24317C11.5197 7.24317 12.7572 8.47957 12.7572 10.0005C12.7572 11.5204 11.5197 12.7579 9.99986 12.7579ZM15.3303 5.25749C15.3303 5.58216 15.0671 5.84536 14.7425 5.84536C14.4178 5.84536 14.1546 5.58216 14.1546 5.25749C14.1546 4.93282 14.4178 4.66962 14.7425 4.66962C15.0671 4.66962 15.3303 4.93282 15.3303 5.25749Z" fill="white"/>
</g>
</svg>
